<?xml version="1.0" encoding="iso-8859-1"?>
<!-- Generator: Adobe Illustrator 16.0.0, SVG Export Plug-In . SVG Version: 6.00 Build 0)  -->
<!DOCTYPE svg PUBLIC "-//W3C//DTD SVG 1.1//EN" "http://www.w3.org/Graphics/SVG/1.1/DTD/svg11.dtd">
<svg version="1.1" id="Capa_1" xmlns="http://www.w3.org/2000/svg" xmlns:xlink="http://www.w3.org/1999/xlink" x="0px" y="0px"
	 width="96.918px" height="96.918px" viewBox="0 0 96.918 96.918" style="enable-background:new 0 0 96.918 96.918;"
	 xml:space="preserve">
<g>
	<g>
		<circle cx="16.167" cy="27.419" r="9.144"/>
		<circle cx="9.628" cy="54.521" r="7.256"/>
		<circle cx="22.039" cy="79.484" r="6.619"/>
		<circle cx="47.593" cy="90.629" r="6.289"/>
		<circle cx="74.332" cy="82.742" r="5.36"/>
		<circle cx="89.747" cy="59.513" r="4.799"/>
		<path d="M87.269,35.476c2.024-0.357,3.377-2.288,3.02-4.313c-0.355-2.026-2.287-3.378-4.311-3.021
			c-2.027,0.357-3.379,2.287-3.022,4.313C83.313,34.481,85.242,35.833,87.269,35.476z"/>
		<circle cx="66.421" cy="12.595" r="2.584"/>
		<circle cx="38.596" cy="10.862" r="10.862"/>
		<path d="M35.219,28.319h-3.607c-1.278,0-2.32,1.04-2.32,2.319v7.214c0,1.278,1.042,2.318,2.32,2.318h3.607
			c1.279,0,2.317-1.04,2.317-2.318v-7.214C37.536,29.359,36.498,28.319,35.219,28.319z M35.99,37.853
			c0,0.426-0.346,0.772-0.771,0.772h-3.607c-0.425,0-0.774-0.347-0.774-0.772v-7.214c0-0.426,0.35-0.772,0.774-0.772h3.607
			c0.426,0,0.771,0.347,0.771,0.772V37.853z"/>
		<path d="M54.414,40.171h3.604c1.279,0,2.32-1.04,2.32-2.318v-7.214c0-1.279-1.041-2.319-2.32-2.319h-3.604
			c-1.279,0-2.317,1.04-2.317,2.319v7.214C52.097,39.131,53.135,40.171,54.414,40.171z M53.642,30.639
			c0-0.426,0.346-0.772,0.772-0.772h3.604c0.428,0,0.774,0.347,0.774,0.772v7.214c0,0.426-0.349,0.772-0.774,0.772h-3.604
			c-0.427,0-0.772-0.347-0.772-0.772V30.639z"/>
		<path d="M50.033,55.372v-7.215c0-1.277-1.04-2.317-2.318-2.317h-3.608c-1.278,0-2.316,1.04-2.316,2.317v7.215
			c0,1.278,1.038,2.317,2.316,2.317h3.608C48.993,57.689,50.033,56.65,50.033,55.372z M43.334,55.372v-7.215
			c0-0.426,0.348-0.772,0.772-0.772h3.608c0.426,0,0.771,0.347,0.771,0.772v7.215c0,0.426-0.346,0.771-0.771,0.771h-3.608
			C43.682,56.145,43.334,55.798,43.334,55.372z"/>
		<path d="M34.511,61.411h-3.607c-1.278,0-2.319,1.042-2.319,2.319v7.215c0,1.277,1.041,2.316,2.319,2.316h3.607
			c1.278,0,2.316-1.039,2.316-2.316V63.73C36.827,62.453,35.789,61.411,34.511,61.411z M35.283,70.945
			c0,0.426-0.346,0.771-0.772,0.771h-3.607c-0.426,0-0.773-0.346-0.773-0.771V63.73c0-0.427,0.348-0.772,0.773-0.772h3.607
			c0.427,0,0.772,0.347,0.772,0.772V70.945z"/>
		<path d="M58.935,61.729h-3.607c-1.278,0-2.316,1.041-2.316,2.318v7.215c0,1.279,1.038,2.317,2.316,2.317h3.607
			c1.278,0,2.318-1.038,2.318-2.317v-7.215C61.253,62.77,60.213,61.729,58.935,61.729z M59.706,71.262
			c0,0.426-0.348,0.772-0.771,0.772h-3.607c-0.426,0-0.771-0.347-0.771-0.772v-7.215c0-0.426,0.348-0.771,0.771-0.771h3.607
			c0.426,0,0.771,0.347,0.771,0.771V71.262z"/>
		<path d="M42.101,31.916l3.038-2.115v9.598c0,0.428,0.346,0.772,0.773,0.772c0.426,0,0.771-0.345,0.771-0.772v-11.08
			c0-0.289-0.16-0.553-0.414-0.686c-0.258-0.135-0.565-0.114-0.8,0.051l-4.253,2.962c-0.35,0.245-0.436,0.727-0.19,1.077
			C41.27,32.074,41.752,32.159,42.101,31.916z"/>
		<path d="M34.832,58.078c0.428,0,0.773-0.346,0.773-0.773V46.226c0-0.287-0.16-0.553-0.416-0.686
			c-0.255-0.134-0.563-0.112-0.799,0.052l-4.252,2.963c-0.35,0.243-0.435,0.728-0.191,1.075c0.244,0.351,0.725,0.437,1.075,0.192
			l3.038-2.115v9.598C34.061,57.732,34.404,58.078,34.832,58.078z"/>
		<path d="M46.814,73.65c0.428,0,0.773-0.348,0.773-0.773V61.798c0-0.287-0.16-0.553-0.416-0.687
			c-0.256-0.133-0.563-0.112-0.8,0.053l-4.251,2.962c-0.351,0.243-0.436,0.728-0.192,1.076c0.245,0.349,0.726,0.436,1.076,0.192
			l3.037-2.117v9.6C46.042,73.304,46.386,73.65,46.814,73.65z"/>
		<path d="M58.343,58.078c0.426,0,0.772-0.346,0.772-0.773V46.226c0-0.287-0.161-0.553-0.414-0.686
			c-0.255-0.134-0.563-0.112-0.802,0.052l-4.248,2.963c-0.354,0.243-0.438,0.728-0.194,1.075c0.245,0.351,0.726,0.437,1.076,0.192
			l3.036-2.115v9.598C57.569,57.732,57.916,58.078,58.343,58.078z"/>
		<path d="M70.916,40.171c1.278,0,2.317-1.04,2.317-2.318v-7.214c0-1.279-1.039-2.319-2.317-2.319H67.31
			c-1.279,0-2.317,1.04-2.317,2.319v7.214c0,1.278,1.038,2.318,2.317,2.318H70.916z M66.537,37.853v-7.214
			c0-0.426,0.346-0.772,0.771-0.772h3.607c0.426,0,0.773,0.347,0.773,0.772v7.214c0,0.426-0.349,0.772-0.773,0.772H67.31
			C66.883,38.625,66.537,38.278,66.537,37.853z"/>
		<path d="M74.147,71.262v-7.215c0-1.277-1.039-2.318-2.318-2.318h-3.607c-1.277,0-2.316,1.041-2.316,2.318v7.215
			c0,1.279,1.039,2.317,2.316,2.317h3.607C73.108,73.579,74.147,72.541,74.147,71.262z M67.449,71.262v-7.215
			c0-0.426,0.348-0.771,0.772-0.771h3.606c0.426,0,0.772,0.347,0.772,0.771v7.215c0,0.426-0.348,0.772-0.772,0.772h-3.606
			C67.797,72.034,67.449,71.688,67.449,71.262z"/>
		<path d="M71.237,58.078c0.427,0,0.772-0.346,0.772-0.773V46.226c0-0.287-0.161-0.553-0.413-0.686
			c-0.256-0.134-0.564-0.112-0.802,0.052l-4.249,2.963c-0.352,0.243-0.438,0.728-0.193,1.075c0.244,0.351,0.726,0.437,1.075,0.192
			l3.036-2.115v9.598C70.465,57.732,70.812,58.078,71.237,58.078z"/>
	</g>
</g>
<g>
</g>
<g>
</g>
<g>
</g>
<g>
</g>
<g>
</g>
<g>
</g>
<g>
</g>
<g>
</g>
<g>
</g>
<g>
</g>
<g>
</g>
<g>
</g>
<g>
</g>
<g>
</g>
<g>
</g>
</svg>
