<?xml version="1.0" encoding="iso-8859-1"?>
<!-- Generator: Adobe Illustrator 19.0.0, SVG Export Plug-In . SVG Version: 6.00 Build 0)  -->
<svg version="1.1" id="Capa_1" xmlns="http://www.w3.org/2000/svg" xmlns:xlink="http://www.w3.org/1999/xlink" x="0px" y="0px"
	 viewBox="0 0 512 512" style="enable-background:new 0 0 512 512;" xml:space="preserve">
<g>
	<g>
		<path d="M256,0L42.904,110.079l92.19,47.622C164.176,123.362,207.582,101.52,256,101.52c48.418,0,91.824,21.841,120.907,56.18
			l92.19-47.622L256,0z"/>
	</g>
</g>
<g>
	<g>
		<path d="M97.58,259.94c0-27.912,7.266-54.155,19.99-76.954l-92.649-47.859v265.386L240.746,512v-94.378
			C160.524,409.922,97.58,342.147,97.58,259.94z"/>
	</g>
</g>
<g>
	<g>
		<path d="M367.317,196.992l-96.063,49.622v140.325c63.366-7.564,112.659-61.63,112.659-126.999
			C383.913,237.071,377.874,215.588,367.317,196.992z"/>
	</g>
</g>
<g>
	<g>
		<path d="M394.43,182.986c12.724,22.799,19.99,49.042,19.99,76.954c0,82.207-62.943,149.982-143.166,157.682V512l215.825-111.487
			V135.127L394.43,182.986z"/>
	</g>
</g>
<g>
	<g>
		<path d="M256,132.028c-36.572,0-69.604,15.431-92.938,40.12L256,220.156l92.938-48.008
			C325.604,147.459,292.572,132.028,256,132.028z"/>
	</g>
</g>
<g>
	<g>
		<path d="M144.684,196.991c-10.558,18.597-16.596,40.08-16.596,62.949c0,65.369,49.292,119.435,112.659,126.999V246.614
			L144.684,196.991z"/>
	</g>
</g>
<g>
</g>
<g>
</g>
<g>
</g>
<g>
</g>
<g>
</g>
<g>
</g>
<g>
</g>
<g>
</g>
<g>
</g>
<g>
</g>
<g>
</g>
<g>
</g>
<g>
</g>
<g>
</g>
<g>
</g>
</svg>
