<?xml version="1.0" encoding="iso-8859-1"?>
<!-- Generator: Adobe Illustrator 16.0.0, SVG Export Plug-In . SVG Version: 6.00 Build 0)  -->
<!DOCTYPE svg PUBLIC "-//W3C//DTD SVG 1.1//EN" "http://www.w3.org/Graphics/SVG/1.1/DTD/svg11.dtd">
<svg version="1.1" id="Capa_1" xmlns="http://www.w3.org/2000/svg" xmlns:xlink="http://www.w3.org/1999/xlink" x="0px" y="0px"
	 width="308.728px" height="308.728px" viewBox="0 0 308.728 308.728" style="enable-background:new 0 0 308.728 308.728;"
	 xml:space="preserve">
<g>
	<g>
		<path d="M153.188,27.208c-37.562,1.134-130,55.057-144.495,63.65l-7.981,32.664l40.236,28.809l-7.733-27.01l189.62-54.288
			l26.895,93.949l58.098-41.331l-10.004-32.698C283.848,82.656,190.877,28.342,153.188,27.208z"/>
		<polygon points="308.728,281.52 308.728,195.199 308.728,160.289 308.728,136.255 306.809,137.621 252.882,175.988 
			222.101,197.888 226.557,202.27 231.942,207.581 237.326,212.886 243.833,219.288 307.02,281.52 		"/>
		<polygon points="0,137.415 0,150.224 0,281.52 1.479,281.52 60.832,221.766 66.667,215.892 72.127,210.391 77.588,204.891 
			85.158,197.271 45.731,169.042 8.147,142.135 0,136.299 		"/>
		<path d="M231.905,222.705l-9.692-9.545l-5.39-5.311l-5.39-5.31l-1.382-1.366l-5.489-5.4l-0.954-0.938
			c-1.599-1.576-3.27-3.053-4.989-4.461c-12.777-10.457-28.655-16.158-45.399-16.158c-16.767,0-32.616,5.69-45.394,16.137
			c-1.938,1.582-3.813,3.265-5.598,5.058l-0.334,0.338l-5.363,5.399l-3.452,3.48l-5.458,5.495l-5.46,5.495l-17.921,18.046
			l-47.276,47.593h274.396L231.905,222.705z"/>
	</g>
</g>
<g>
</g>
<g>
</g>
<g>
</g>
<g>
</g>
<g>
</g>
<g>
</g>
<g>
</g>
<g>
</g>
<g>
</g>
<g>
</g>
<g>
</g>
<g>
</g>
<g>
</g>
<g>
</g>
<g>
</g>
</svg>
