<?xml version="1.0" encoding="iso-8859-1"?>
<!-- Generator: Adobe Illustrator 19.0.0, SVG Export Plug-In . SVG Version: 6.00 Build 0)  -->
<svg version="1.1" id="Layer_1" xmlns="http://www.w3.org/2000/svg" xmlns:xlink="http://www.w3.org/1999/xlink" x="0px" y="0px"
	 viewBox="0 0 512 512" style="enable-background:new 0 0 512 512;" xml:space="preserve">
<g>
	<g>
		<path d="M478.33,179.574H33.67c-18.566,0-33.67,15.105-33.67,33.67v85.511c0,18.566,15.105,33.67,33.67,33.67h444.66
			c18.566,0,33.67-15.105,33.67-33.67v-85.511C512,194.679,496.895,179.574,478.33,179.574z M359.148,316.392H33.67
			c-9.725,0-17.637-7.912-17.637-17.637v-85.511c0-9.725,7.912-17.637,17.637-17.637h325.478V316.392z M495.967,298.756
			c0,9.725-7.912,17.637-17.637,17.637H375.182V195.608H478.33c9.725,0,17.637,7.912,17.637,17.637V298.756z"/>
	</g>
</g>
<g>
	<g>
		<path d="M475.447,284.536l-19.638-19.638c3.098-5.092,4.884-11.066,4.884-17.45c0-18.566-15.105-33.67-33.67-33.67
			c-18.566,0-33.67,15.105-33.67,33.67s15.105,33.67,33.67,33.67c6.383,0,12.357-1.786,17.45-4.884l19.638,19.638
			c1.565,1.565,3.617,2.348,5.668,2.348s4.103-0.782,5.668-2.348C478.578,292.742,478.578,287.666,475.447,284.536z
			 M427.023,265.086c-9.725,0-17.637-7.912-17.637-17.637c0-9.725,7.912-17.637,17.637-17.637c9.725,0,17.637,7.912,17.637,17.637
			C444.66,257.174,436.748,265.086,427.023,265.086z"/>
	</g>
</g>
<g>
	<g>
		<path d="M42.221,213.779c-4.427,0-8.017,3.589-8.017,8.017v68.409c0,4.427,3.589,8.017,8.017,8.017
			c4.427,0,8.017-3.589,8.017-8.017v-68.409C50.238,217.368,46.649,213.779,42.221,213.779z"/>
	</g>
</g>
<g>
</g>
<g>
</g>
<g>
</g>
<g>
</g>
<g>
</g>
<g>
</g>
<g>
</g>
<g>
</g>
<g>
</g>
<g>
</g>
<g>
</g>
<g>
</g>
<g>
</g>
<g>
</g>
<g>
</g>
</svg>
