<?xml version="1.0" encoding="iso-8859-1"?>
<!-- Generator: Adobe Illustrator 16.0.0, SVG Export Plug-In . SVG Version: 6.00 Build 0)  -->
<!DOCTYPE svg PUBLIC "-//W3C//DTD SVG 1.1//EN" "http://www.w3.org/Graphics/SVG/1.1/DTD/svg11.dtd">
<svg version="1.1" id="Capa_1" xmlns="http://www.w3.org/2000/svg" xmlns:xlink="http://www.w3.org/1999/xlink" x="0px" y="0px"
	 width="31.934px" height="31.934px" viewBox="0 0 31.934 31.934" style="enable-background:new 0 0 31.934 31.934;"
	 xml:space="preserve">
<g>
	<g>
		<polygon points="23.386,21.834 23.365,7.389 18.793,5.742 14.607,7.378 14.607,12.565 17.51,13.61 17.848,13.732 17.849,14.094 
			17.869,25.223 19.418,25.871 23.389,23.865 		"/>
		<polygon points="29.396,1.648 24.824,0 20.639,1.637 20.639,5.861 23.539,6.907 23.877,7.029 23.879,7.389 23.899,22.049 
			25.451,22.693 29.418,20.689 		"/>
		<polygon points="14.607,13.11 14.607,13.11 12.764,12.445 8.578,14.082 8.578,20.661 11.447,21.695 11.785,21.816 11.786,22.175 
			11.805,28.322 13.39,28.98 17.358,26.977 17.334,14.095 		"/>
		<polygon points="11.291,28.107 11.272,22.177 6.701,20.529 2.516,22.165 2.516,29.927 7.328,31.934 11.295,29.927 		"/>
	</g>
</g>
<g>
</g>
<g>
</g>
<g>
</g>
<g>
</g>
<g>
</g>
<g>
</g>
<g>
</g>
<g>
</g>
<g>
</g>
<g>
</g>
<g>
</g>
<g>
</g>
<g>
</g>
<g>
</g>
<g>
</g>
</svg>
