<?xml version="1.0" encoding="iso-8859-1"?>
<!-- Generator: Adobe Illustrator 19.0.0, SVG Export Plug-In . SVG Version: 6.00 Build 0)  -->
<svg version="1.1" id="Capa_1" xmlns="http://www.w3.org/2000/svg" xmlns:xlink="http://www.w3.org/1999/xlink" x="0px" y="0px"
	 viewBox="0 0 512.002 512.002" style="enable-background:new 0 0 512.002 512.002;" xml:space="preserve">
<g>
	<g>
		<g>
			<path d="M37.134,377.756l-3-1.592v-3.396c0-4.713-3.82-8.533-8.533-8.533s-8.533,3.82-8.533,8.533v8.533
				c0.002,3.161,1.749,6.062,4.542,7.542l7.542,3.996c1.226,0.653,2.594,0.994,3.983,0.992v0c3.923,0.005,7.343-2.666,8.291-6.472
				C42.372,383.552,40.602,379.59,37.134,377.756z"/>
			<path d="M25.601,347.94c2.263,0.001,4.434-0.898,6.035-2.499c1.6-1.6,2.499-3.771,2.499-6.035v-16.679
				c0-4.713-3.82-8.533-8.533-8.533s-8.533,3.82-8.533,8.533v16.679c-0.001,2.263,0.898,4.434,2.499,6.035
				C21.167,347.041,23.338,347.94,25.601,347.94z"/>
			<path d="M25.601,197.815c2.263,0.001,4.434-0.898,6.035-2.499c1.6-1.6,2.499-3.771,2.499-6.035v-16.683
				c0-4.713-3.82-8.533-8.533-8.533s-8.533,3.82-8.533,8.533v16.683c-0.001,2.263,0.898,4.434,2.499,6.035
				C21.167,196.916,23.338,197.815,25.601,197.815z"/>
			<path d="M25.601,297.898c2.263,0.001,4.434-0.898,6.035-2.499c1.6-1.6,2.499-3.771,2.499-6.035v-16.679
				c0-3.049-1.626-5.866-4.267-7.39c-2.64-1.524-5.893-1.524-8.533,0s-4.267,4.341-4.267,7.39v16.679
				c-0.001,2.263,0.898,4.434,2.499,6.035C21.167,297,23.338,297.899,25.601,297.898z"/>
			<path d="M25.601,247.856c2.263,0.001,4.434-0.898,6.035-2.499c1.6-1.6,2.499-3.771,2.499-6.035V222.64
				c0-4.713-3.82-8.533-8.533-8.533s-8.533,3.82-8.533,8.533v16.683c-0.001,2.263,0.898,4.434,2.499,6.035
				C21.167,246.958,23.338,247.857,25.601,247.856z"/>
			<path d="M37.685,119.471c-2.585-1.621-5.839-1.738-8.534-0.307l-7.542,3.996c-2.793,1.48-4.54,4.381-4.542,7.542v8.533
				c-0.001,2.263,0.898,4.434,2.499,6.035c1.6,1.6,3.771,2.499,6.035,2.499c2.263,0.001,4.434-0.898,6.035-2.499
				c1.6-1.6,2.499-3.771,2.499-6.035v-3.396l3-1.592c2.699-1.424,4.432-4.18,4.545-7.229
				C41.793,123.97,40.27,121.092,37.685,119.471z"/>
			<path d="M63.909,118.927c1.392,0.001,2.762-0.339,3.991-0.992l15.384-8.154c4.165-2.209,5.751-7.377,3.542-11.542
				c-2.209-4.165-7.377-5.751-11.542-3.542l-15.383,8.154c-3.465,1.838-5.231,5.8-4.282,9.605S59.988,118.931,63.909,118.927z"/>
			<path d="M110.051,94.46L110.051,94.46c1.392,0.001,2.762-0.339,3.992-0.991l15.383-8.154c4.165-2.209,5.751-7.377,3.542-11.542
				c-2.209-4.165-7.377-5.751-11.542-3.542l-15.383,8.154c-3.465,1.838-5.231,5.8-4.282,9.605
				C102.709,91.796,106.129,94.465,110.051,94.46z"/>
			<path d="M156.193,69.998L156.193,69.998c1.392,0,2.763-0.342,3.992-0.996l15.375-8.154c2.717-1.416,4.466-4.18,4.583-7.241
				s-1.416-5.951-4.017-7.57s-5.87-1.72-8.566-0.264l-15.375,8.154c-3.465,1.836-5.232,5.799-4.283,9.604
				C148.85,67.336,152.271,70.004,156.193,69.998z"/>
			<path d="M202.335,45.531L202.335,45.531c1.392,0,2.763-0.342,3.992-0.996l15.375-8.154c2.717-1.416,4.466-4.18,4.583-7.241
				c0.117-3.061-1.416-5.951-4.017-7.57c-2.601-1.619-5.87-1.72-8.566-0.264l-15.375,8.154c-3.465,1.836-5.232,5.798-4.283,9.604
				C194.992,42.869,198.413,45.537,202.335,45.531z"/>
			<path d="M252.451,20.073l3.55-1.879l3.55,1.879c1.226,0.653,2.594,0.994,3.983,0.992h0c3.923,0.005,7.343-2.666,8.291-6.472
				c0.947-3.807-0.823-7.769-4.291-9.603l-7.542-3.996c-2.496-1.325-5.487-1.325-7.983,0l-7.542,3.996
				c-4.165,2.205-5.755,7.368-3.55,11.533C243.122,20.688,248.286,22.277,252.451,20.073z"/>
			<path d="M290.301,36.385l15.383,8.154c1.229,0.652,2.6,0.993,3.992,0.992c3.922,0.004,7.342-2.665,8.291-6.47
				c0.949-3.805-0.818-7.767-4.282-9.605l-15.383-8.154c-4.165-2.209-9.333-0.623-11.542,3.542
				C284.55,29.009,286.136,34.176,290.301,36.385z"/>
			<path d="M336.443,60.848l15.375,8.154c1.228,0.656,2.599,0.998,3.992,0.996c3.922,0.006,7.342-2.662,8.291-6.467
				c0.949-3.805-0.818-7.767-4.283-9.604l-15.375-8.154c-2.696-1.456-5.965-1.355-8.566,0.264s-4.134,4.508-4.017,7.57
				C331.977,56.668,333.726,59.432,336.443,60.848z"/>
			<path d="M382.585,85.315l15.375,8.154c1.228,0.655,2.599,0.997,3.992,0.996l0,0c3.922,0.006,7.342-2.662,8.291-6.467
				c0.949-3.805-0.818-7.767-4.283-9.604l-15.375-8.154c-2.696-1.456-5.965-1.355-8.566,0.264c-2.601,1.619-4.134,4.508-4.017,7.57
				C378.119,81.135,379.868,83.899,382.585,85.315z"/>
			<path d="M428.726,109.777l15.375,8.158c1.229,0.654,2.6,0.996,3.992,0.996c3.922,0.006,7.342-2.662,8.292-6.467
				c0.949-3.805-0.818-7.767-4.283-9.604l-15.375-8.158c-2.695-1.456-5.965-1.355-8.566,0.264s-4.134,4.508-4.017,7.57
				C424.26,105.597,426.009,108.361,428.726,109.777z"/>
			<path d="M490.393,123.16l-7.542-3.996c-2.695-1.431-5.949-1.314-8.534,0.307c-2.585,1.621-4.108,4.498-3.995,7.547
				c0.114,3.049,1.847,5.806,4.545,7.229l3,1.592v3.396c-0.001,2.263,0.898,4.434,2.499,6.035c1.6,1.6,3.771,2.499,6.035,2.499
				c2.263,0.001,4.434-0.898,6.035-2.499c1.6-1.6,2.499-3.771,2.499-6.035v-8.533C494.933,127.542,493.185,124.64,490.393,123.16z"
				/>
			<path d="M486.401,164.065c-4.713,0-8.533,3.82-8.533,8.533v16.679c-0.001,2.263,0.898,4.434,2.499,6.035
				c1.6,1.6,3.771,2.499,6.035,2.499c2.263,0.001,4.434-0.898,6.035-2.499c1.6-1.6,2.499-3.771,2.499-6.035v-16.679
				C494.934,167.885,491.114,164.065,486.401,164.065z"/>
			<path d="M486.401,264.148c-4.713,0-8.533,3.82-8.533,8.533v16.683c-0.001,2.263,0.898,4.434,2.499,6.035
				c1.6,1.6,3.771,2.499,6.035,2.499c2.263,0.001,4.434-0.898,6.035-2.499c1.6-1.6,2.499-3.771,2.499-6.035v-16.683
				C494.934,267.968,491.114,264.148,486.401,264.148z"/>
			<path d="M486.401,214.106c-4.713,0-8.533,3.82-8.533,8.533v16.679c-0.001,2.263,0.898,4.434,2.499,6.035
				c1.6,1.6,3.771,2.499,6.035,2.499c2.263,0.001,4.434-0.898,6.035-2.499c1.6-1.6,2.499-3.771,2.499-6.035V222.64
				C494.934,217.927,491.114,214.106,486.401,214.106z"/>
			<path d="M486.401,314.19c-4.713,0-8.533,3.82-8.533,8.533v16.683c-0.001,2.263,0.898,4.434,2.499,6.035
				c1.6,1.6,3.771,2.499,6.035,2.499c2.263,0.001,4.434-0.898,6.035-2.499c1.6-1.6,2.499-3.771,2.499-6.035v-16.683
				C494.934,318.01,491.114,314.19,486.401,314.19z"/>
			<path d="M486.401,364.235c-4.713,0-8.533,3.82-8.533,8.533v3.396l-3,1.592c-3.468,1.834-5.238,5.796-4.291,9.603
				c0.947,3.807,4.368,6.477,8.291,6.472c1.389,0.002,2.757-0.339,3.983-0.992l7.542-3.996c2.793-1.48,4.54-4.381,4.542-7.542
				v-8.533C494.934,368.056,491.114,364.235,486.401,364.235z"/>
			<polygon points="386.584,442.765 386.584,442.765 386.584,442.765 			"/>
			<path d="M444.101,394.068l-15.383,8.154c-3.465,1.838-5.231,5.8-4.282,9.605c0.949,3.805,4.369,6.474,8.291,6.47
				c1.392,0.001,2.762-0.339,3.992-0.992l15.383-8.154c4.165-2.209,5.751-7.377,3.542-11.542
				C453.434,393.445,448.267,391.859,444.101,394.068z"/>
			<path d="M397.959,418.535l-15.383,8.154c-3.465,1.838-5.231,5.8-4.282,9.605c0.949,3.805,4.369,6.474,8.291,6.47
				c1.392,0.001,2.762-0.339,3.992-0.992l15.383-8.154c4.165-2.209,5.751-7.377,3.542-11.542
				C407.292,417.912,402.125,416.326,397.959,418.535z"/>
			<path d="M314.242,467.733c-2.601-1.619-5.87-1.72-8.566-0.264l-15.375,8.154c-3.465,1.836-5.232,5.798-4.283,9.604
				c0.949,3.805,4.37,6.473,8.292,6.467c1.392,0,2.763-0.342,3.992-0.996l15.375-8.154c2.717-1.416,4.466-4.18,4.583-7.241
				C318.376,472.241,316.843,469.352,314.242,467.733z"/>
			<polygon points="340.451,467.227 340.451,467.227 340.451,467.227 			"/>
			<path d="M360.383,443.266c-2.601-1.619-5.87-1.72-8.566-0.264l-15.375,8.154c-3.465,1.836-5.232,5.798-4.283,9.604
				c0.949,3.805,4.37,6.473,8.291,6.467c1.392,0,2.763-0.342,3.992-0.996l15.375-8.154c2.717-1.416,4.466-4.18,4.583-7.241
				C364.517,447.774,362.984,444.885,360.383,443.266z"/>
			<path d="M268.085,492.238c-2.585-1.621-5.839-1.738-8.534-0.307l-3.55,1.879l-3.55-1.879c-2.695-1.431-5.949-1.314-8.534,0.307
				c-2.585,1.621-4.108,4.498-3.995,7.547c0.114,3.049,1.847,5.806,4.545,7.229l7.542,3.996c1.229,0.652,2.6,0.993,3.992,0.992
				c1.392,0.001,2.762-0.339,3.991-0.992l7.542-3.996c2.699-1.424,4.432-4.18,4.545-7.229
				C272.193,496.736,270.67,493.859,268.085,492.238z"/>
			<path d="M129.418,426.69l-15.375-8.154c-2.695-1.456-5.965-1.355-8.566,0.264c-2.601,1.619-4.134,4.508-4.017,7.57
				c0.117,3.061,1.866,5.825,4.583,7.241l15.375,8.154c1.228,0.655,2.599,0.997,3.992,0.996c3.922,0.006,7.342-2.662,8.291-6.467
				C134.65,432.488,132.883,428.526,129.418,426.69z"/>
			<path d="M83.276,402.227l-15.375-8.158c-2.696-1.456-5.965-1.355-8.566,0.264s-4.134,4.508-4.017,7.57
				c0.117,3.061,1.866,5.825,4.583,7.241l15.375,8.158c1.229,0.654,2.6,0.995,3.992,0.996c3.922,0.006,7.342-2.662,8.291-6.467
				C88.508,408.025,86.741,404.063,83.276,402.227z"/>
			<path d="M175.56,451.156l-15.375-8.154c-2.696-1.456-5.965-1.355-8.566,0.264c-2.601,1.619-4.134,4.508-4.017,7.57
				c0.117,3.061,1.866,5.825,4.583,7.241l15.375,8.154c1.228,0.655,2.599,0.998,3.992,0.996h0c3.922,0.006,7.342-2.662,8.291-6.467
				C180.792,456.955,179.025,452.993,175.56,451.156z"/>
			<path d="M221.701,475.619l-15.383-8.154c-4.165-2.209-9.333-0.623-11.542,3.542c-2.209,4.165-0.623,9.333,3.542,11.542
				l15.383,8.154c1.229,0.652,2.6,0.993,3.992,0.992c3.922,0.004,7.342-2.665,8.291-6.47
				C226.932,481.419,225.166,477.456,221.701,475.619z"/>
			<path d="M258.503,247.974l175.524-92.897L256.001,60.856L77.975,155.077L253.5,247.974
				C255.099,247.3,256.903,247.3,258.503,247.974z"/>
			<polygon points="68.268,351.79 247.468,446.632 247.468,264.09 68.268,169.248 			"/>
			<polygon points="443.734,169.248 264.534,264.09 264.534,446.632 443.734,351.79 			"/>
		</g>
	</g>
</g>
<g>
</g>
<g>
</g>
<g>
</g>
<g>
</g>
<g>
</g>
<g>
</g>
<g>
</g>
<g>
</g>
<g>
</g>
<g>
</g>
<g>
</g>
<g>
</g>
<g>
</g>
<g>
</g>
<g>
</g>
</svg>
