<?xml version="1.0" encoding="iso-8859-1"?>
<!-- Generator: Adobe Illustrator 19.0.0, SVG Export Plug-In . SVG Version: 6.00 Build 0)  -->
<svg version="1.1" id="Layer_1" xmlns="http://www.w3.org/2000/svg" xmlns:xlink="http://www.w3.org/1999/xlink" x="0px" y="0px"
	 viewBox="0 0 512 512" style="enable-background:new 0 0 512 512;" xml:space="preserve">
<g>
	<g>
		<path d="M473.492,189.736L473.492,189.736l-22.418-2.651c-2.44-6.903-5.255-13.692-8.412-20.293l13.98-17.731
			c13.685-17.359,13.647-40.807-0.085-54.541l-39.083-39.083c-13.734-13.734-37.182-13.771-54.543-0.083l-17.73,13.981
			c-6.603-3.159-13.393-5.974-20.294-8.412l-2.651-22.417C319.658,16.554,303.053,0,283.63,0h-55.271
			c-19.424,0-36.03,16.555-38.626,38.508l-2.65,22.417c-6.899,2.438-13.685,5.251-20.284,8.408l-17.73-13.981
			c-17.359-13.687-40.807-13.653-54.543,0.083L55.444,94.517C41.71,108.252,41.673,131.7,55.36,149.058l13.979,17.731
			c-3.159,6.602-5.974,13.392-8.413,20.293l-22.418,2.651C16.555,192.329,0,208.935,0,228.359v55.271
			c0,19.424,16.554,36.029,38.506,38.626l22.417,2.651c2.438,6.902,5.253,13.692,8.411,20.294l-13.981,17.73
			c-13.688,17.359-13.653,40.808,0.083,54.543l39.082,39.082c13.736,13.735,37.184,13.769,54.541,0.084l17.73-13.979
			c6.606,3.16,13.394,5.975,20.294,8.413l2.65,22.417C192.329,495.445,208.934,512,228.359,512h55.271
			c19.423,0,36.028-16.554,38.626-38.506l2.651-22.417c6.907-2.439,13.7-5.256,20.304-8.416l17.73,13.979
			c17.357,13.686,40.805,13.65,54.541-0.084l39.081-39.082c13.736-13.734,13.772-37.183,0.084-54.542l-13.981-17.731
			c3.158-6.602,5.973-13.392,8.411-20.294l22.416-2.651C495.445,319.659,512,303.054,512,283.63v-55.271
			C512,208.935,495.445,192.33,473.492,189.736z M492,283.63c0,9.291-8.966,17.358-20.854,18.764l-28.704,3.396
			c-3.897,0.461-7.165,3.159-8.354,6.899c-3.183,10.008-7.245,19.808-12.073,29.129c-1.807,3.486-1.406,7.708,1.026,10.791
			l17.904,22.706c7.414,9.403,8.049,21.448,1.479,28.017l-39.082,39.082c-6.57,6.569-18.614,5.934-28.016-1.479l-22.706-17.902
			c-3.083-2.43-7.303-2.835-10.792-1.026c-9.323,4.83-19.125,8.893-29.137,12.078c-3.74,1.189-6.438,4.457-6.899,8.354
			l-3.396,28.704c-1.408,11.89-9.475,20.856-18.765,20.856H228.36c-9.292,0-17.359-8.966-18.765-20.856l-3.394-28.706
			c-0.461-3.898-3.159-7.166-6.899-8.355c-10.001-3.181-19.802-7.244-29.129-12.075c-1.451-0.752-3.029-1.121-4.598-1.121
			c-2.204,0-4.392,0.727-6.193,2.148l-22.706,17.902c-9.403,7.413-21.447,8.05-28.016,1.479l-39.083-39.082
			c-6.571-6.571-5.934-18.615,1.48-28.017l17.904-22.706c2.431-3.083,2.833-7.305,1.026-10.791
			c-4.828-9.321-8.889-19.121-12.073-29.129c-1.189-3.74-4.457-6.438-8.354-6.899l-28.705-3.396
			C28.966,300.988,20,292.921,20,283.63v-55.271c0-9.291,8.967-17.358,20.857-18.763l28.706-3.394
			c3.898-0.461,7.166-3.159,8.355-6.899c3.183-10.007,7.246-19.807,12.075-29.128c1.807-3.487,1.406-7.709-1.026-10.792
			l-17.902-22.707c-7.414-9.402-8.049-21.446-1.479-28.016l39.081-39.083c6.569-6.571,18.615-5.934,28.016,1.48l22.706,17.905
			c3.085,2.432,7.308,2.834,10.792,1.026c9.317-4.827,19.115-8.888,29.12-12.071c3.74-1.189,6.438-4.457,6.899-8.355l3.394-28.705
			C211.001,28.967,219.067,20,228.359,20h55.271c9.29,0,17.357,8.966,18.764,20.855l3.396,28.705c0.461,3.898,3.16,7.166,6.9,8.355
			c10.005,3.181,19.806,7.244,29.128,12.073c3.484,1.807,7.708,1.406,10.792-1.026l22.706-17.905
			c9.404-7.412,21.448-8.051,28.017-1.48l39.083,39.082c6.569,6.57,5.932,18.614-1.479,28.016l-17.903,22.707
			c-2.431,3.084-2.833,7.305-1.026,10.792c4.828,9.317,8.89,19.117,12.075,29.127c1.189,3.74,4.457,6.439,8.355,6.899l28.706,3.394
			h-0.001c11.89,1.407,20.857,9.473,20.857,18.765V283.63z"/>
	</g>
</g>
<g>
	<g>
		<path d="M256,155.644c-55.336,0-100.356,45.02-100.356,100.356S200.663,356.356,256,356.356
			c55.337,0,100.356-45.019,100.356-100.356C356.356,200.664,311.336,155.644,256,155.644z M256,336.356
			c-44.308,0-80.356-36.047-80.356-80.356s36.047-80.356,80.356-80.356c44.309,0,80.356,36.048,80.356,80.356
			C336.356,300.308,300.308,336.356,256,336.356z"/>
	</g>
</g>
<g>
	<g>
		<path d="M400.399,246.003c-5.522,0-10,4.477-10,10c0,59.205-37.945,110.785-94.423,128.351c-5.273,1.641-8.22,7.246-6.579,12.519
			c1.333,4.285,5.282,7.033,9.546,7.033c0.984,0,1.985-0.146,2.972-0.455c30.776-9.572,58.409-29.129,77.807-55.067
			c20.069-26.836,30.677-58.78,30.677-92.381C410.399,250.48,405.921,246.003,400.399,246.003z"/>
	</g>
</g>
<g>
	<g>
		<circle cx="253.95" cy="398.24" r="10"/>
	</g>
</g>
<g>
</g>
<g>
</g>
<g>
</g>
<g>
</g>
<g>
</g>
<g>
</g>
<g>
</g>
<g>
</g>
<g>
</g>
<g>
</g>
<g>
</g>
<g>
</g>
<g>
</g>
<g>
</g>
<g>
</g>
</svg>
