<svg height="451pt" viewBox="1 -26 451.729 451" width="451pt" xmlns="http://www.w3.org/2000/svg"><path d="m335.242188 399.652344c-1.28125 0-2.558594-.351563-3.683594-1.046875-2.066406-1.277344-3.320313-3.53125-3.320313-5.957031v-86.203126l-67.90625-58.191406c-1.554687-1.328125-2.449219-3.273437-2.449219-5.316406v-64.285156c0-3.867188 3.136719-7.003906 7.003907-7.003906h180.109375c3.867187 0 7.003906 3.136718 7.003906 7.003906v64.285156c0 2.042969-.894531 3.988281-2.445312 5.316406l-67.910157 58.191406v66.519532c0 2.652344-1.5 5.078125-3.871093 6.265625l-39.402344 19.683593c-.988282.492188-2.058594.738282-3.128906.738282zm-63.351563-159.9375 67.90625 58.191406c1.554687 1.328125 2.449219 3.269531 2.449219 5.316406v78.097656l25.390625-12.6875v-65.410156c0-2.046875.894531-3.988281 2.445312-5.316406l67.910157-58.191406v-54.058594h-166.101563zm0 0"/><path d="m444.996094 216.128906h-177.371094c-3.871094 0-7.003906-3.136718-7.003906-7.003906s3.132812-7.003906 7.003906-7.003906h177.371094c3.867187 0 7.003906 3.136718 7.003906 7.003906s-3.136719 7.003906-7.003906 7.003906zm0 0"/><path d="m307.25 313.175781c-.027344 0-.050781 0-.078125 0h-260.144531c-25.929688 0-47.027344-21.09375-47.027344-47.027343v-218.738282c0-25.933594 21.097656-47.03125 47.027344-47.03125h260.15625c25.933594 0 47.027344 21.097656 47.027344 47.03125v130.933594c0 3.867188-3.132813 7.003906-7.003907 7.003906-3.867187 0-7.003906-3.136718-7.003906-7.003906v-130.933594c0-18.207031-14.8125-33.019531-33.019531-33.019531h-260.15625c-18.207032 0-33.019532 14.8125-33.019532 33.019531v218.738282c0 18.207031 14.8125 33.019531 33.019532 33.019531h260.15625.054687c6.589844 0 12.949219-1.949219 18.402344-5.632813 3.207031-2.167968 7.558594-1.324218 9.726563 1.878906 2.167968 3.203126 1.324218 7.558594-1.882813 9.726563-7.777344 5.257813-16.847656 8.035156-26.234375 8.035156zm0 0"/><path d="m347.207031 95.78125h-340.203125c-3.867187 0-7.003906-3.136719-7.003906-7.003906 0-3.867188 3.136719-7.003906 7.003906-7.003906h340.203125c3.871094 0 7.003907 3.136718 7.003907 7.003906 0 3.867187-3.132813 7.003906-7.003907 7.003906zm0 0"/><path d="m100.4375 67.984375c-10.792969 0-19.574219-8.78125-19.574219-19.574219 0-10.796875 8.78125-19.578125 19.574219-19.578125 10.796875 0 19.578125 8.78125 19.578125 19.578125 0 10.792969-8.78125 19.574219-19.578125 19.574219zm0-25.144531c-3.070312 0-5.566406 2.5-5.566406 5.570312 0 3.070313 2.496094 5.566406 5.566406 5.566406s5.570312-2.496093 5.570312-5.566406c0-3.070312-2.5-5.570312-5.570312-5.570312zm0 0"/><path d="m43.960938 67.808594c-10.792969 0-19.574219-8.78125-19.574219-19.578125 0-10.792969 8.78125-19.574219 19.574219-19.574219 10.796874 0 19.578124 8.78125 19.578124 19.574219 0 10.796875-8.78125 19.578125-19.578124 19.578125zm0-25.144532c-3.070313 0-5.566407 2.5-5.566407 5.566407 0 3.070312 2.496094 5.570312 5.566407 5.570312 3.070312 0 5.570312-2.5 5.570312-5.570312 0-3.066407-2.5-5.566407-5.570312-5.566407zm0 0"/><path d="m156.914062 68.164062c-10.792968 0-19.574218-8.785156-19.574218-19.578124 0-10.792969 8.78125-19.578126 19.574218-19.578126 10.796876 0 19.578126 8.785157 19.578126 19.578126 0 10.792968-8.78125 19.578124-19.578126 19.578124zm0-25.144531c-3.070312 0-5.566406 2.496094-5.566406 5.566407 0 3.070312 2.496094 5.570312 5.566406 5.570312 3.070313 0 5.570313-2.5 5.570313-5.570312 0-3.070313-2.5-5.566407-5.570313-5.566407zm0 0"/></svg>