<svg id="Capa_1" enable-background="new 0 0 488 488" height="512" viewBox="0 0 488 488" width="512" xmlns="http://www.w3.org/2000/svg"><path d="m482.353 203.228-47.51-4.584c-4.902-20.337-13.112-39.731-24.3-57.408l30.157-36.406c1.966-2.379 1.806-5.862-.369-8.051l-48.607-49.1c-2.188-2.214-5.705-2.388-8.1-.4l-36.457 30.229c-17.75-11.062-37.147-19.231-57.463-24.2l-4.581-47.084c-.317-3.036-2.922-5.314-5.973-5.224h-69.7c-3.05-.091-5.655 2.186-5.972 5.221l-4.578 47.187c-20.359 4.832-39.785 12.979-57.5 24.116l-36.421-30.218c-2.379-1.978-5.873-1.823-8.067.359l-49.2 49.094c-2.192 2.189-2.357 5.688-.38 8.074l30.21 36.435c-11.059 17.727-19.244 37.091-24.253 57.375l-47.642 4.585c-3.121.278-5.544 2.84-5.647 5.972v69.6c.103 3.132 2.526 5.694 5.647 5.972l47.51 4.584c4.903 20.337 13.112 39.731 24.3 57.408l-30.157 36.406c-1.974 2.391-1.8 5.892.4 8.077l49.207 49.1c2.191 2.188 5.688 2.349 8.071.372l36.457-30.227c17.75 11.065 37.148 19.236 57.465 24.208l4.582 47.084c.32 3.032 2.921 5.305 5.968 5.216h69.7c3.05.091 5.655-2.186 5.972-5.221l4.582-47.187c20.359-4.832 39.785-12.979 57.5-24.116l36.415 30.218c2.379 1.978 5.873 1.823 8.067-.359l49.2-49.094c2.193-2.189 2.358-5.688.381-8.074l-30.211-36.435c11.059-17.728 19.245-37.094 24.254-57.38l47.047-4.581c3.119-.28 5.54-2.841 5.643-5.971v-69.6c-.103-3.132-2.526-5.694-5.647-5.972zm-6.353 70.13-45.909 4.47c-2.609.246-4.773 2.122-5.385 4.67-4.913 21.874-13.73 42.683-26.028 61.428-1.44 2.195-1.286 5.072.381 7.1l29.494 35.588-41.469 41.386-35.6-29.515c-2.035-1.688-4.936-1.844-7.141-.385-18.688 12.381-39.532 21.145-61.452 25.838-2.527.459-4.447 2.532-4.712 5.087l-4.479 45.975h-58.8l-4.475-45.979c-.259-2.581-2.176-4.689-4.722-5.189-21.898-4.818-42.739-13.57-61.51-25.832-2.204-1.406-5.065-1.222-7.072.454l-35.6 29.528-41.46-41.371 29.508-35.584c1.69-2.039 1.843-4.945.377-7.151-12.403-18.651-21.2-39.462-25.933-61.354-.655-2.575-2.864-4.457-5.511-4.695l-46.502-4.475v-58.7l46.5-4.476c2.611-.243 4.778-2.12 5.392-4.67 4.913-21.874 13.73-42.683 26.028-61.428 1.44-2.195 1.286-5.072-.381-7.1l-29.492-35.596 41.469-41.382 35.6 29.515c2.035 1.688 4.936 1.844 7.141.385 18.688-12.379 39.533-21.142 61.453-25.834 2.527-.459 4.447-2.532 4.712-5.087l4.478-45.979h58.8l4.475 45.979c.259 2.581 2.177 4.689 4.722 5.189 21.898 4.817 42.739 13.57 61.51 25.832 2.204 1.406 5.065 1.222 7.072-.454l35.572-29.506 40.909 41.325-29.529 35.61c-1.69 2.039-1.843 4.945-.377 7.151 12.403 18.651 21.2 39.462 25.933 61.354.655 2.575 2.864 4.457 5.511 4.695l46.5 4.475z"/><path d="m244.05 103.1c-77.8 0-141.1 63.208-141.1 140.9s63.3 140.9 141.1 140.9 141.1-63.208 141.1-140.9-63.297-140.9-141.1-140.9zm0 269.8c-71.186 0-129.1-57.824-129.1-128.9s57.914-128.9 129.1-128.9 129.1 57.824 129.1 128.9-57.914 128.9-129.1 128.9z"/><path d="m222.374 199.018c-1.999-2.643-5.761-3.166-8.405-1.167l-54.264 41.033c-2.643 1.999-3.165 5.762-1.166 8.405.333.441.726.833 1.166 1.166l54.264 41.033c2.629 2.017 6.396 1.521 8.413-1.108s1.521-6.396-1.108-8.413c-.022-.017-.044-.034-.066-.05l-47.936-36.248 47.936-36.247c2.642-1.999 3.164-5.761 1.166-8.404z"/><path d="m328.4 238.884-54.264-41.033c-2.618-2.031-6.387-1.555-8.418 1.064s-1.555 6.387 1.064 8.418c.039.03.078.06.118.089l47.935 36.247-47.935 36.248c-2.667 1.966-3.236 5.722-1.27 8.39s5.722 3.236 8.39 1.27c.039-.029.078-.059.117-.088l54.264-41.033c2.643-1.999 3.165-5.762 1.166-8.405-.334-.441-.726-.834-1.167-1.167z"/><path d="m254.16 176.874c-3.275-.492-6.331 1.76-6.831 5.034l-18.523 122.392c-.496 3.276 1.758 6.334 5.034 6.83.3.046.603.069.906.069 2.963-.004 5.48-2.17 5.925-5.1l18.523-122.399c.493-3.275-1.76-6.33-5.034-6.826z"/></svg>