<svg height="512pt" viewBox="0 0 512.001 512" width="512pt" xmlns="http://www.w3.org/2000/svg"><path d="m502.71875 187.480469c-5.96875-21.539063-14.769531-42.230469-26.160156-61.519531-22.507813-38.101563-54.667969-69.902344-93-91.972657-19-10.929687-39.339844-19.378906-60.457032-25.101562-21.773437-5.894531-44.339843-8.886719-67.101562-8.886719-17.371094 0-34.730469 1.75-51.589844 5.199219-16.441406 3.371093-32.609375 8.382812-48.058594 14.921875-15.171874 6.417968-29.800781 14.359375-43.480468 23.597656-13.5625 9.160156-26.300782 19.683594-37.890625 31.261719-11.582031 11.578125-22.101563 24.328125-31.261719 37.890625-9.238281 13.679687-17.179688 28.308594-23.597656 43.476562-6.542969 15.453125-11.550782 31.621094-14.921875 48.0625-3.449219 16.859375-5.199219 34.21875-5.199219 51.589844 0 26.640625 4.078125 52.910156 12.128906 78.070312 7.792969 24.339844 19.191406 47.339844 33.882813 68.359376.257812.390624.558593.761718.886719 1.101562.890624.890625 1.992187 1.550781 3.203124 1.910156l.019532.007813c.019531 0 .039062.011719.070312.019531.75.210938 1.527344.3125 2.320313.28125l.109375-.007812c1.117187-.050782 2.179687-.351563 3.160156-.882813.007812 0 .019531-.011719.019531-.011719l.058594-.027344c.871094-.480468 1.621094-1.109374 2.242187-1.890624l.058594-.070313c.429688-.558594.789063-1.179687 1.050782-1.839844.359374-.921875.539062-1.890625.527343-2.878906v-.019531c0-.011719 0-.03125 0-.03125-.027343-1.359375-.429687-2.699219-1.167969-3.859375-.070312-.109375-.148437-.230469-.242187-.351563-28.339844-40.558594-43.328125-88.238281-43.328125-137.878906 0-64.359375 25.070312-124.890625 70.589844-170.410156 45.53125-45.519532 106.050781-70.589844 170.410156-70.589844 42.160156 0 83.640625 11.039062 119.960938 31.929688l.109374.0625c74.589844 42.957031 120.929688 123.046874 120.929688 209.007812 0 64.359375-25.070312 124.878906-70.589844 170.410156-45.519531 45.519532-106.039062 70.589844-170.410156 70.589844-49.5 0-97.070312-14.910156-137.570312-43.121094-2.21875-1.539062-5.210938-1.757812-7.628907-.558594l-86.339843 42.9375c-1.019532.5-1.960938.730469-2.972657.742188h-.019531c-1.609375 0-3.257812-.722656-4.507812-1.972656-1.25-1.257813-1.972657-2.90625-1.960938-4.527344.011719-1.011719.25-1.960938.75-2.980469l29.710938-59.101562c.898437-1.789063 1.050781-3.820313.417968-5.71875-.628906-1.898438-1.957031-3.449219-3.75-4.351563-1.058594-.527344-2.1875-.800781-3.359375-.800781-2.859375 0-5.429687 1.589844-6.710937 4.140625l-29.707032 59.089844c-1.542968 3.0625-2.351562 6.421875-2.351562 9.722656.0585938 5.742188 2.308594 11.121094 6.339844 15.148438 4.03125 4.03125 9.410156 6.292968 15.148437 6.351562h.03125c3.261719 0 6.582031-.800781 9.609375-2.308594l82.410156-40.980468c42.199219 28.320312 91.460938 43.289062 142.460938 43.289062 17.371094 0 34.730469-1.75 51.589844-5.199219 16.441406-3.371093 32.609375-8.378906 48.058594-14.921875 15.171874-6.417968 29.800781-14.359375 43.480468-23.597656 13.5625-9.160156 26.300782-19.683594 37.890625-31.261719 11.582031-11.589843 22.101563-24.328125 31.261719-37.890625 9.238281-13.679687 17.179688-28.308594 23.601562-43.480468 6.527344-15.449219 11.546876-31.617188 14.917969-48.058594 3.449219-16.859375 5.199219-34.21875 5.199219-51.589844 0-23.257812-3.121094-46.320312-9.28125-68.519531zm0 0"/><path d="m111.539062 235.53125c-3.089843.769531-5.359374 3.417969-5.648437 6.589844-.855469 9.359375-.855469 18.382812 0 27.757812.289063 3.171875 2.558594 5.820313 5.648437 6.589844l13.890626 3.480469c1.28125 7 3.140624 13.941406 5.519531 20.632812l-10.300781 9.96875c-2.289063 2.210938-2.929688 5.640625-1.589844 8.53125 3.882812 8.417969 8.5625 16.5 13.902344 24.039063 1.785156 2.523437 5.03125 3.757812 8.179687 2.871094l13.820313-3.953126c4.769531 5.589844 9.699218 10.519532 15.058593 15.082032l-3.941406 13.789062c-.878906 3.058594.28125 6.339844 2.882813 8.179688 7.527343 5.339844 15.628906 10.019531 24.050781 13.902344 2.839843 1.308593 6.359375.636718 8.527343-1.601563l9.972657-10.3125c6.667969 2.371094 13.597656 4.210937 20.589843 5.492187l3.476563 13.898438c.773437 3.089844 3.421875 5.359375 6.601563 5.640625 9.214843.839844 18.246093.871094 27.78125-.011719 3.167968-.289062 5.820312-2.558594 6.597656-5.648437l3.480468-13.898438c6.960938-1.28125 13.882813-3.132812 20.550782-5.5l9.960937 10.296875c2.167969 2.242188 5.699219 2.902344 8.539063 1.59375 8.304687-3.84375 16.273437-8.394531 24.070312-13.933594 2.589844-1.839843 3.738282-5.117187 2.871094-8.179687l-3.953125-13.800781c5.382813-4.589844 10.433594-9.640625 15.011719-15.007813l13.789062 3.9375c3.230469.902344 6.429688-.390625 8.179688-2.867187 5.351562-7.550782 10.042968-15.652344 13.933594-24.101563 1.328124-2.890625.6875-6.320312-1.601563-8.53125l-10.3125-9.96875c2.371094-6.648437 4.210937-13.550781 5.480469-20.511719l13.902344-3.476562c3.089843-.773438 5.355468-3.421875 5.648437-6.589844.847656-9.292968.859375-18.238281 0-27.820312-.292969-3.171875-2.5625-5.820313-5.648437-6.601563l-13.902344-3.472656c-1.277344-6.957031-3.121094-13.855469-5.480469-20.507813l10.3125-9.96875c2.289063-2.222656 2.929687-5.640624 1.601563-8.53125-3.890626-8.441406-8.582032-16.550781-13.933594-24.101562-1.746094-2.472656-4.945313-3.773438-8.179688-2.867188l-13.789062 3.9375c-4.589844-5.371093-9.640625-10.421874-15.011719-15.011718l3.953125-13.808594c.867188-3.050781-.28125-6.339844-2.871094-8.167969-7.53125-5.351562-15.628906-10.042969-24.070312-13.941406-2.839844-1.300781-6.371094-.640625-8.539063 1.601563l-9.960937 10.300781c-6.667969-2.371094-13.578125-4.230469-20.550782-5.5l-3.480468-13.902344c-.777344-3.089844-3.429688-5.359375-6.589844-5.648437-9.371094-.867188-18.660156-.863282-27.796875-.011719-3.171875.289062-5.820313 2.5625-6.59375 5.652343l-3.476563 13.886719c-6.992187 1.273438-13.921874 3.113281-20.589843 5.492188l-9.972657-10.3125c-2.273437-2.355469-5.6875-2.90625-8.527343-1.597657-8.421875 3.878907-16.511719 8.546876-24.0625 13.898438-2.589844 1.839844-3.75 5.121094-2.871094 8.179688l3.941406 13.789062c-5.398437 4.601562-10.480469 9.671875-15.078125 15.070312l-13.800781-3.9375c-3.148437-.894531-6.398437.347657-8.179687 2.867188-5.339844 7.53125-10.019532 15.621094-13.902344 24.042969-1.339844 2.886719-.699219 6.320312 1.589844 8.527343l10.300781 9.972657c-2.378907 6.6875-4.238281 13.628906-5.519531 20.628906zm22.332032 9.867188c2.957031-.738282 5.160156-3.179688 5.597656-6.207032 1.320312-9.25 3.75-18.320312 7.203125-26.949218 1.136719-2.84375.457031-6.050782-1.742187-8.183594l-9.949219-9.617188c2.191406-4.292968 4.628906-8.5 7.25-12.523437l13.320312 3.8125c2.859375.820312 6.109375-.238281 7.949219-2.570313 5.769531-7.3125 12.410156-13.941406 19.730469-19.710937 2.398437-1.890625 3.410156-5.007813 2.570312-7.949219l-3.8125-13.320312c4.03125-2.621094 8.25-5.058594 12.542969-7.238282l9.628906 9.949219c2.050782 2.121094 5.171875 2.917969 8.167969 1.75 8.632813-3.449219 17.683594-5.859375 26.910156-7.179687 3.03125-.429688 5.472657-2.628907 6.210938-5.601563l3.359375-13.417969c4.851562-.261718 9.679687-.261718 14.511718.007813l3.359376 13.421875c.738281 2.96875 3.179687 5.167968 6.210937 5.609375 9.21875 1.320312 18.257813 3.75 26.867187 7.1875 2.78125 1.121093 6.101563.402343 8.179688-1.738281l9.621094-9.949219c4.3125 2.199219 8.53125 4.648437 12.5625 7.269531l-3.8125 13.332031-.070313.238281c-.707031 2.859376.320313 5.878907 2.632813 7.710938 7.1875 5.667969 13.976562 12.460938 19.648437 19.660156 1.828125 2.328125 5.089844 3.390625 7.949219 2.566406l13.320312-3.808593c2.640626 4.039062 5.078126 8.269531 7.269532 12.578125l-9.949219 9.621094c-2.171875 2.101562-2.871094 5.378906-1.75 8.179687 3.441406 8.589844 5.851563 17.621094 7.171875 26.832031.429688 3.027344 2.628906 5.46875 5.597656 6.210938l13.421875 3.355468c.128907 2.433594.199219 4.882813.199219 7.273438 0 2.378906-.070312 4.828125-.199219 7.269531-15.054687 3.761719-13.238281 3.285157-14.140625 3.578125-.011718 0-.019531.011719-.019531.011719-2.402344.871094-4.179687 2.871094-4.75 5.371094 0 0 0 .019531-.011719.027343-.386718 1.929688-1.535156 12.902344-7.109375 27.023438-.03125.058594-.050781.109375-.070312.167969-1.25 2.851562-.578125 6.230469 1.660156 8.398437l9.949219 9.621094c-2.1875 4.3125-4.628906 8.539062-7.269532 12.582031l-13.320312-3.8125c-2.859375-.820312-6.109375.238281-7.949219 2.570313-5.738281 7.289062-12.351562 13.898437-19.648437 19.660156-2.390625 1.890625-3.402344 5.007812-2.5625 7.949219l3.8125 13.332031c-4.042969 2.628906-8.273438 5.078125-12.570313 7.269531l-9.609375-9.949219c-2.113281-2.171874-5.261718-2.898437-8.179687-1.75-8.613281 3.449219-17.652344 5.867188-26.871094 7.199219-3.03125.429688-5.46875 2.628907-6.210937 5.601563l-3.359376 13.429687c-4.808593.257813-9.660156.257813-14.507812.007813l-3.363281-13.417969c-.738281-2.972656-3.179688-5.171875-6.207031-5.601563-9.25-1.320312-18.300782-3.738281-26.910157-7.179687-2.761719-1.101563-6.109375-.382813-8.171875 1.75l-9.628906 9.949219c-4.289062-2.179688-8.511719-4.621094-12.539062-7.238282l3.808593-13.320312c.839844-2.941406-.167969-6.0625-2.578125-7.949219-7.25-5.722656-13.53125-12-19.75-19.761719-1.871094-2.328124-4.957031-3.359374-7.921875-2.519531l-13.320312 3.808594c-2.628907-4.027344-5.058594-8.238281-7.25-12.519531l9.949219-9.621094c2.203124-2.128906 2.882812-5.339844 1.742187-8.179688-3.449219-8.628906-5.882813-17.699218-7.199219-26.949218-.441406-3.03125-2.640625-5.46875-5.601562-6.210938l-13.429688-3.359375c-.121094-2.417969-.191406-4.851562-.191406-7.25 0-2.390625.070312-4.820312.191406-7.230469zm0 0"/><path d="m255.871094 333.058594h.050781c42.777344 0 77.136719-34.613282 77.136719-76.949219 0-42.792969-34.617188-77.179687-76.9375-77.179687-14.921875.011718-29.429688 4.273437-41.941406 12.320312-3.503907 2.261719-4.496094 6.886719-2.25 10.371094 2.230468 3.449218 6.820312 4.507812 10.371093 2.238281 10.078125-6.488281 21.769531-9.929687 33.808594-9.929687 33.472656.027343 61.933594 26.96875 61.949219 62.179687 0 33.53125-27.039063 61.929687-62.179688 61.960937-33.535156-.027343-61.933594-27.03125-61.949218-62.179687.011718-11.761719 3.351562-23.242187 9.671874-33.191406 2.195313-3.46875 1.222657-8.089844-2.3125-10.351563-3.558593-2.230468-8.148437-1.164062-10.347656 2.3125-7.863281 12.351563-12.011718 26.609375-12.011718 41.230469 0 42.824219 34.644531 77.167969 76.941406 77.167969zm0 0"/><path d="m255.996094 298.5c23.4375 0 42.5-19.0625 42.5-42.5 0-23.433594-19.0625-42.5-42.5-42.5-23.433594 0-42.5 19.066406-42.5 42.5 0 23.4375 19.066406 42.5 42.5 42.5zm0-70c15.164062 0 27.5 12.339844 27.5 27.5 0 15.164062-12.335938 27.5-27.5 27.5-15.164063 0-27.5-12.335938-27.5-27.5 0-15.160156 12.335937-27.5 27.5-27.5zm0 0"/></svg>