<?xml version="1.0" encoding="iso-8859-1"?>
<!-- Generator: Adobe Illustrator 16.0.0, SVG Export Plug-In . SVG Version: 6.00 Build 0)  -->
<!DOCTYPE svg PUBLIC "-//W3C//DTD SVG 1.1//EN" "http://www.w3.org/Graphics/SVG/1.1/DTD/svg11.dtd">
<svg version="1.1" id="Capa_1" xmlns="http://www.w3.org/2000/svg" xmlns:xlink="http://www.w3.org/1999/xlink" x="0px" y="0px"
	 width="98.393px" height="98.393px" viewBox="0 0 98.393 98.393" style="enable-background:new 0 0 98.393 98.393;"
	 xml:space="preserve">
<g>
	<g>
		<path d="M96.27,8.912c-2.832-2.831-7.423-2.831-10.254,0L65.156,29.771c-1.785,1.785-2.442,4.27-1.977,6.572l-4.854,4.854
			c-10.959-8.205-26.608-7.333-36.564,2.624c-1.809,1.81-3.311,3.809-4.52,5.931c-0.159-0.195-0.391-0.328-0.662-0.328h-1.347
			c-0.477,0-0.866,0.388-0.866,0.864v2.694c0,0.478,0.389,0.865,0.866,0.865h0.098c-0.183,0.492-0.353,0.988-0.507,1.487
			l-1.432,0.997c-0.131,0.092-0.163,0.271-0.071,0.402c0.09,0.131,0.271,0.162,0.401,0.071l0.849-0.591
			c-0.496,1.82-0.806,3.683-0.929,5.555c-0.066,0.122-0.113,0.255-0.113,0.403v2.693c0,0.139,0.04,0.265,0.098,0.38
			c0.074,1.283,0.233,2.563,0.482,3.828v2.266c0,0.457,0.36,0.822,0.81,0.854c0.576,1.8,1.338,3.552,2.287,5.229
			c0.014,0.281,0.166,0.52,0.388,0.667c0.357,0.592,0.739,1.171,1.144,1.739l-1.013,0.705c-0.131,0.092-0.163,0.271-0.072,0.402
			s0.271,0.163,0.401,0.072l1.02-0.71c0.037,0.05,0.077,0.099,0.115,0.147v3.355c0,0.158,0.129,0.288,0.289,0.288
			c0.159,0,0.289-0.129,0.289-0.288v-2.61c0.62,0.768,1.284,1.512,1.998,2.226c10.917,10.917,28.681,10.917,39.599,0
			c0.584-0.585,1.131-1.192,1.654-1.814v1.479c0,0.478,0.389,0.865,0.866,0.865h1.347c0.479,0,0.865-0.389,0.865-0.865v-2.692
			c0-0.479-0.388-0.866-0.865-0.866h-0.623c0.907-1.313,1.68-2.69,2.336-4.109v1.825c0,0.479,0.389,0.865,0.866,0.865h1.347
			c0.479,0,0.867-0.388,0.867-0.865v-2.692c0-0.479-0.389-0.866-0.867-0.866h-1.351c-0.056,0-0.104,0.021-0.157,0.031
			c0.523-1.358,0.938-2.745,1.242-4.155c0.133-0.101,0.225-0.252,0.225-0.433v-0.478l0.654-0.455v3.584
			c0,0.159,0.131,0.288,0.289,0.288c0.159,0,0.289-0.129,0.289-0.288v-4.137c0-0.108-0.061-0.207-0.154-0.256
			c-0.097-0.052-0.211-0.043-0.299,0.019l-0.672,0.469c0.115-0.758,0.199-1.519,0.252-2.28c0.002,0,0.004,0.002,0.006,0.002
			c0.158,0,0.287-0.129,0.287-0.288v-4.139c0-0.106-0.06-0.206-0.154-0.256c-0.067-0.035-0.142-0.032-0.211-0.012
			c-0.037-0.386-0.097-0.768-0.149-1.151h0.159c0.478,0,0.865-0.388,0.865-0.864v-2.693c0-0.479-0.388-0.866-0.865-0.866h-1.137
			c-0.303-0.981-0.67-1.946-1.084-2.896v-2.279c0-0.478-0.389-0.865-0.867-0.865h-0.733c-0.494-0.828-1.021-1.641-1.606-2.424
			l4.854-4.854c2.303,0.467,4.787-0.19,6.571-1.977L96.27,19.167C99.1,16.334,99.1,11.743,96.27,8.912z M69.152,74.257
			c0.16,0,0.289,0.13,0.289,0.289v2.692c0,0.159-0.129,0.288-0.289,0.288h-1.347c-0.159,0-0.289-0.129-0.289-0.288v-2.692
			c0-0.159,0.13-0.289,0.289-0.289H69.152z M25.946,51.136c0.445-0.557,0.919-1.096,1.432-1.61h1.683
			c0.303,0,0.549,0.246,0.549,0.549v5.128c0,0.304-0.246,0.549-0.549,0.549h-2.564c-0.302,0-0.55-0.245-0.55-0.549L25.946,51.136
			L25.946,51.136z M15.233,53.271c-0.159,0-0.289-0.129-0.289-0.288v-2.694c0-0.158,0.13-0.288,0.289-0.288h1.347
			c0.159,0,0.288,0.13,0.288,0.288v0.134c-0.496,0.93-0.936,1.881-1.32,2.85L15.233,53.271L15.233,53.271z M28.012,77.826
			c0,0.136-0.055,0.255-0.136,0.352c-0.15-0.143-0.311-0.268-0.458-0.414c-1.222-1.223-2.23-2.574-3.069-3.998v-1.067
			c0-0.303,0.248-0.549,0.55-0.549h2.564c0.303,0,0.549,0.246,0.549,0.549V77.826z M28.692,78.913
			c0.258-0.29,0.419-0.669,0.419-1.087v-5.128c0-0.909-0.738-1.647-1.647-1.647H24.9c-0.652,0-1.213,0.385-1.48,0.937
			c-2.849-6.196-2.387-13.552,1.428-19.352v2.565c0,0.908,0.74,1.647,1.648,1.647h2.564c0.909,0,1.647-0.739,1.647-1.647v-5.128
			c0-0.909-0.738-1.647-1.647-1.647h-0.475c7.617-6.512,18.982-6.361,26.433,0.436c-0.212-0.101-0.447-0.16-0.697-0.16h-2.564
			c-0.908,0-1.648,0.739-1.648,1.648v5.128c0,0.908,0.74,1.646,1.648,1.646h2.564c0.908,0,1.646-0.738,1.646-1.646v-5.129
			c0-0.308-0.089-0.591-0.234-0.837c3.119,3.134,4.963,7.054,5.573,11.126c-0.293-0.271-0.681-0.438-1.11-0.438h-2.562
			c-0.909,0-1.646,0.739-1.646,1.648v5.128c0,0.908,0.737,1.646,1.646,1.646h2.562c0.271,0,0.521-0.07,0.748-0.188
			c-0.197,0.801-0.437,1.592-0.733,2.367c-0.069,0.016-0.14,0.027-0.199,0.069l-3.022,2.105c-0.248,0.174-0.31,0.517-0.135,0.766
			c0.172,0.249,0.516,0.311,0.764,0.138l1.783-1.242c-0.933,1.847-2.156,3.583-3.697,5.123
			C48.314,85.151,36.541,85.527,28.692,78.913z M54.869,50.349v5.128c0,0.303-0.246,0.549-0.549,0.549h-2.564
			c-0.303,0-0.551-0.246-0.551-0.549v-5.128c0-0.303,0.248-0.549,0.551-0.549h2.564C54.623,49.801,54.869,50.047,54.869,50.349z
			 M60.746,61.849v5.128c0,0.303-0.247,0.549-0.551,0.549h-2.562c-0.303,0-0.549-0.246-0.549-0.549v-5.128
			c0-0.303,0.246-0.549,0.549-0.549h2.562C60.499,61.301,60.746,61.547,60.746,61.849z M65.227,80.101
			c0.159,0,0.288,0.129,0.288,0.288v2.693c0,0.159-0.129,0.288-0.288,0.288H63.88c-0.159,0-0.289-0.129-0.289-0.288v-2.219
			c0.196-0.252,0.39-0.507,0.577-0.764L65.227,80.101L65.227,80.101z M69.41,55.897c0.16,0,0.289,0.13,0.289,0.289v2.693
			c0,0.158-0.129,0.287-0.289,0.287h-0.246c-0.176-1.1-0.397-2.192-0.704-3.271L69.41,55.897L69.41,55.897z M66.324,49.856
			c0.158,0,0.289,0.13,0.289,0.288v0.98c-0.215-0.432-0.465-0.848-0.703-1.27L66.324,49.856L66.324,49.856z"/>
		<path d="M45.267,48.426h-2.563c-0.909,0-1.647,0.738-1.647,1.647v5.128c0,0.908,0.738,1.647,1.647,1.647h2.563
			c0.909,0,1.648-0.739,1.648-1.647v-5.128C46.915,49.164,46.176,48.426,45.267,48.426z M45.817,55.201
			c0,0.304-0.247,0.549-0.55,0.549h-2.563c-0.303,0-0.549-0.245-0.549-0.549v-5.128c0-0.303,0.246-0.549,0.549-0.549h2.563
			c0.303,0,0.55,0.246,0.55,0.549V55.201z"/>
		<path d="M36.914,47.938c-0.183-0.096-0.401-0.081-0.568,0.036l-3.022,2.104c-0.249,0.175-0.31,0.518-0.136,0.767
			c0.173,0.249,0.516,0.31,0.764,0.137l2.159-1.504V56.3c0,0.304,0.246,0.549,0.55,0.549c0.303,0,0.549-0.245,0.549-0.549v-7.875
			C37.209,48.22,37.095,48.032,36.914,47.938z"/>
		<path d="M34.936,59.926h-2.563c-0.909,0-1.647,0.738-1.647,1.647v5.128c0,0.908,0.738,1.647,1.647,1.647h2.563
			c0.909,0,1.648-0.739,1.648-1.647v-5.128C36.584,60.664,35.845,59.926,34.936,59.926z M35.486,66.701
			c0,0.304-0.247,0.549-0.55,0.549h-2.563c-0.303,0-0.549-0.245-0.549-0.549v-5.128c0-0.303,0.246-0.549,0.549-0.549h2.563
			c0.303,0,0.55,0.246,0.55,0.549V66.701z"/>
		<path d="M26.583,59.438c-0.183-0.096-0.401-0.081-0.568,0.036l-3.022,2.104c-0.249,0.175-0.31,0.518-0.136,0.767
			c0.173,0.249,0.516,0.31,0.764,0.137l2.159-1.504V67.8c0,0.304,0.246,0.549,0.55,0.549c0.303,0,0.549-0.245,0.549-0.549v-7.875
			C26.878,59.72,26.764,59.532,26.583,59.438z"/>
		<path d="M43.989,60.2h-2.564c-0.908,0-1.648,0.739-1.648,1.648v5.128c0,0.908,0.74,1.646,1.648,1.646h2.564
			c0.909,0,1.647-0.738,1.647-1.646v-5.128C45.637,60.939,44.899,60.2,43.989,60.2z M44.538,66.977c0,0.303-0.246,0.549-0.549,0.549
			h-2.564c-0.302,0-0.55-0.246-0.55-0.549v-5.128c0-0.303,0.248-0.549,0.55-0.549h2.564c0.303,0,0.549,0.246,0.549,0.549V66.977z"/>
		<path d="M51.04,61.254v6.821c0,0.305,0.245,0.549,0.55,0.549c0.303,0,0.549-0.244,0.549-0.549V60.2
			c0-0.205-0.113-0.393-0.295-0.486c-0.184-0.097-0.4-0.081-0.568,0.035l-3.021,2.105c-0.249,0.174-0.31,0.517-0.136,0.766
			c0.173,0.249,0.516,0.311,0.764,0.138L51.04,61.254z"/>
		<path d="M43.671,71.051h-2.563c-0.909,0-1.647,0.738-1.647,1.647v5.128c0,0.908,0.738,1.647,1.647,1.647h2.563
			c0.909,0,1.648-0.739,1.648-1.647v-5.128C45.319,71.789,44.58,71.051,43.671,71.051z M44.22,77.826
			c0,0.304-0.247,0.549-0.55,0.549h-2.563c-0.303,0-0.549-0.245-0.549-0.549v-5.128c0-0.303,0.246-0.549,0.549-0.549h2.563
			c0.303,0,0.55,0.246,0.55,0.549V77.826z"/>
		<path d="M35.318,70.562c-0.183-0.096-0.401-0.081-0.568,0.036l-3.022,2.104c-0.249,0.175-0.31,0.518-0.136,0.767
			c0.173,0.249,0.516,0.31,0.764,0.137l2.159-1.504v6.822c0,0.304,0.246,0.549,0.55,0.549c0.303,0,0.549-0.245,0.549-0.549V71.05
			C35.613,70.845,35.499,70.657,35.318,70.562z"/>
		<path d="M52.724,71.325H50.16c-0.908,0-1.648,0.739-1.648,1.648v5.128c0,0.908,0.74,1.646,1.648,1.646h2.564
			c0.909,0,1.647-0.738,1.647-1.646v-5.128C54.371,72.064,53.634,71.325,52.724,71.325z M53.273,78.102
			c0,0.303-0.246,0.549-0.55,0.549H50.16c-0.302,0-0.55-0.246-0.55-0.549v-5.128c0-0.303,0.248-0.549,0.55-0.549h2.564
			c0.304,0,0.55,0.246,0.55,0.549V78.102z"/>
		<path d="M74.838,49.279H73.49c-0.478,0-0.864,0.388-0.864,0.865v2.694c0,0.477,0.388,0.864,0.864,0.864h1.348
			c0.479,0,0.865-0.389,0.865-0.864v-2.694C75.703,49.667,75.316,49.279,74.838,49.279z M75.127,52.84
			c0,0.158-0.129,0.288-0.289,0.288H73.49c-0.158,0-0.287-0.13-0.287-0.288v-2.694c0-0.158,0.129-0.288,0.287-0.288h1.348
			c0.158,0,0.289,0.13,0.289,0.288V52.84z"/>
		<path d="M70.449,49.023c-0.096-0.051-0.211-0.043-0.297,0.019l-1.588,1.106c-0.132,0.091-0.164,0.271-0.072,0.401
			c0.092,0.131,0.271,0.163,0.402,0.071l1.133-0.79v3.584c0,0.159,0.131,0.288,0.289,0.288c0.159,0,0.289-0.129,0.289-0.288v-4.137
			C70.605,49.172,70.545,49.072,70.449,49.023z"/>
		<path d="M80.46,50.289c0-0.478-0.388-0.864-0.865-0.864h-1.347c-0.477,0-0.866,0.388-0.866,0.864v2.694
			c0,0.478,0.39,0.865,0.866,0.865h1.347c0.478,0,0.865-0.39,0.865-0.865V50.289z M79.883,52.983c0,0.159-0.129,0.288-0.288,0.288
			h-1.347c-0.159,0-0.289-0.129-0.289-0.288v-2.694c0-0.158,0.13-0.288,0.289-0.288h1.347c0.159,0,0.288,0.13,0.288,0.288V52.983z"
			/>
		<path d="M83.72,49.168c-0.096-0.051-0.211-0.043-0.299,0.02l-1.587,1.105c-0.131,0.092-0.163,0.271-0.072,0.402
			c0.092,0.13,0.271,0.162,0.402,0.071l1.134-0.79v3.584c0,0.159,0.129,0.288,0.289,0.288c0.159,0,0.289-0.129,0.289-0.288v-4.137
			C83.875,49.315,83.814,49.218,83.72,49.168z"/>
		<path d="M72.82,59.891h1.347c0.478,0,0.864-0.39,0.864-0.866v-2.693c0-0.478-0.387-0.865-0.864-0.865H72.82
			c-0.478,0-0.867,0.389-0.867,0.865v2.693C71.953,59.503,72.343,59.891,72.82,59.891z M72.531,56.331
			c0-0.158,0.129-0.288,0.289-0.288h1.347c0.159,0,0.288,0.13,0.288,0.288v2.693c0,0.159-0.129,0.289-0.288,0.289H72.82
			c-0.16,0-0.289-0.13-0.289-0.289V56.331z"/>
		<path d="M83.547,59.024v-2.693c0-0.478-0.389-0.865-0.866-0.865h-1.347c-0.479,0-0.865,0.389-0.865,0.865v2.693
			c0,0.479,0.389,0.866,0.865,0.866h1.347C83.158,59.891,83.547,59.503,83.547,59.024z M82.97,59.024
			c0,0.159-0.13,0.289-0.289,0.289h-1.347c-0.159,0-0.288-0.13-0.288-0.289v-2.693c0-0.158,0.129-0.288,0.288-0.288h1.347
			c0.159,0,0.289,0.13,0.289,0.288V59.024z"/>
		<path d="M78.293,55.209c-0.096-0.051-0.211-0.043-0.299,0.02l-1.588,1.105c-0.131,0.092-0.162,0.271-0.07,0.402
			c0.09,0.131,0.271,0.162,0.4,0.071l1.135-0.79v3.584c0,0.16,0.129,0.289,0.289,0.289c0.158,0,0.287-0.129,0.287-0.289v-4.137
			C78.447,55.357,78.388,55.26,78.293,55.209z"/>
		<path d="M71.787,64.725c0,0.477,0.388,0.865,0.865,0.865h1.347c0.478,0,0.866-0.39,0.866-0.865V62.03
			c0-0.478-0.389-0.866-0.866-0.866h-1.347c-0.479,0-0.865,0.39-0.865,0.866V64.725z M72.363,62.03c0-0.159,0.129-0.288,0.289-0.288
			h1.347c0.159,0,0.288,0.129,0.288,0.288v2.694c0,0.159-0.129,0.288-0.288,0.288h-1.347c-0.16,0-0.289-0.129-0.289-0.288V62.03z"/>
		<path d="M76.543,62.176v2.693c0,0.478,0.389,0.865,0.865,0.865h1.348c0.479,0,0.865-0.389,0.865-0.865v-2.693
			c0-0.479-0.389-0.866-0.865-0.866h-1.348C76.931,61.309,76.543,61.697,76.543,62.176z M79.044,62.176v2.693
			c0,0.158-0.129,0.288-0.289,0.288h-1.347c-0.159,0-0.289-0.13-0.289-0.288v-2.693c0-0.159,0.13-0.288,0.289-0.288h1.347
			C78.915,61.887,79.044,62.016,79.044,62.176z"/>
		<path d="M82.748,65.734c0.158,0,0.289-0.129,0.289-0.288v-4.138c0-0.107-0.061-0.205-0.155-0.256
			c-0.097-0.05-0.21-0.042-0.298,0.02l-1.588,1.105c-0.131,0.092-0.163,0.271-0.072,0.401s0.271,0.163,0.4,0.072l1.135-0.79v3.584
			C82.46,65.605,82.589,65.734,82.748,65.734z"/>
		<path d="M74.58,67.638h-1.348c-0.478,0-0.865,0.388-0.865,0.865v2.693c0,0.478,0.389,0.865,0.865,0.865h1.348
			c0.478,0,0.865-0.389,0.865-0.865v-2.693C75.445,68.025,75.057,67.638,74.58,67.638z M74.867,71.197
			c0,0.159-0.129,0.288-0.289,0.288h-1.346c-0.16,0-0.289-0.129-0.289-0.288v-2.693c0-0.158,0.129-0.288,0.289-0.288h1.346
			c0.16,0,0.289,0.13,0.289,0.288V71.197z"/>
		<path d="M79.336,67.782h-1.348c-0.477,0-0.865,0.389-0.865,0.865v2.694c0,0.477,0.389,0.864,0.865,0.864h1.348
			c0.477,0,0.865-0.389,0.865-0.864v-2.694C80.201,68.171,79.812,67.782,79.336,67.782z M79.624,71.343
			c0,0.158-0.13,0.288-0.288,0.288h-1.348c-0.158,0-0.289-0.13-0.289-0.288v-2.694c0-0.159,0.131-0.288,0.289-0.288h1.348
			c0.158,0,0.288,0.129,0.288,0.288V71.343z"/>
		<path d="M83.462,67.526c-0.097-0.051-0.211-0.043-0.3,0.02l-1.586,1.105c-0.131,0.091-0.164,0.271-0.072,0.402
			c0.091,0.13,0.271,0.162,0.402,0.07l1.134-0.79v3.584c0,0.159,0.129,0.288,0.288,0.288c0.16,0,0.289-0.129,0.289-0.288v-4.137
			C83.617,67.675,83.557,67.575,83.462,67.526z"/>
		<path d="M73.908,73.823h-1.346c-0.478,0-0.867,0.39-0.867,0.866v2.693c0,0.478,0.39,0.865,0.867,0.865h1.346
			c0.478,0,0.865-0.389,0.865-0.865v-2.693C74.773,74.213,74.386,73.823,73.908,73.823z M74.197,77.384
			c0,0.158-0.129,0.289-0.289,0.289h-1.346c-0.16,0-0.289-0.131-0.289-0.289V74.69c0-0.159,0.129-0.288,0.289-0.288h1.346
			c0.16,0,0.289,0.129,0.289,0.288V77.384z"/>
		<path d="M82.423,73.823h-1.347c-0.479,0-0.865,0.39-0.865,0.866v2.693c0,0.478,0.388,0.865,0.865,0.865h1.347
			c0.478,0,0.866-0.389,0.866-0.865v-2.693C83.289,74.213,82.9,73.823,82.423,73.823z M82.712,77.384
			c0,0.158-0.13,0.289-0.289,0.289h-1.347c-0.159,0-0.289-0.131-0.289-0.289V74.69c0-0.159,0.13-0.288,0.289-0.288h1.347
			c0.159,0,0.289,0.129,0.289,0.288V77.384z"/>
		<path d="M77.613,74.376v3.585c0,0.159,0.129,0.288,0.289,0.288c0.158,0,0.287-0.129,0.287-0.288v-4.138
			c0-0.106-0.06-0.206-0.154-0.256c-0.096-0.051-0.211-0.043-0.299,0.02l-1.588,1.105c-0.131,0.091-0.162,0.271-0.07,0.402
			c0.09,0.131,0.271,0.162,0.4,0.07L77.613,74.376z"/>
		<path d="M73.74,79.522h-1.346c-0.479,0-0.865,0.389-0.865,0.866v2.693c0,0.478,0.388,0.865,0.865,0.865h1.346
			c0.479,0,0.867-0.389,0.867-0.865v-2.693C74.607,79.911,74.219,79.522,73.74,79.522z M74.029,83.083
			c0,0.159-0.129,0.288-0.289,0.288h-1.346c-0.16,0-0.289-0.129-0.289-0.288v-2.694c0-0.159,0.129-0.288,0.289-0.288h1.346
			c0.16,0,0.289,0.129,0.289,0.288V83.083z"/>
		<path d="M69.354,79.267c-0.097-0.05-0.212-0.043-0.3,0.02l-1.587,1.105c-0.131,0.092-0.163,0.271-0.07,0.401
			c0.09,0.132,0.271,0.162,0.4,0.072l1.134-0.79v3.584c0,0.159,0.129,0.288,0.289,0.288c0.159,0,0.288-0.129,0.288-0.288v-4.138
			C69.508,79.415,69.447,79.316,69.354,79.267z"/>
		<path d="M78.496,79.667H77.15c-0.478,0-0.867,0.39-0.867,0.866v2.694c0,0.477,0.39,0.865,0.867,0.865h1.346
			c0.479,0,0.865-0.39,0.865-0.865v-2.694C79.363,80.056,78.975,79.667,78.496,79.667z M78.785,83.228
			c0,0.158-0.129,0.288-0.289,0.288H77.15c-0.16,0-0.289-0.13-0.289-0.288v-2.694c0-0.159,0.129-0.288,0.289-0.288h1.346
			c0.16,0,0.289,0.129,0.289,0.288V83.228z"/>
		<path d="M82.623,79.411c-0.096-0.05-0.211-0.042-0.299,0.021l-1.586,1.104c-0.131,0.093-0.164,0.271-0.072,0.402
			c0.091,0.131,0.271,0.163,0.4,0.072l1.135-0.79v3.584c0,0.159,0.129,0.288,0.289,0.288c0.158,0,0.289-0.129,0.289-0.288v-4.139
			C82.779,79.56,82.718,79.463,82.623,79.411z"/>
		<path d="M4.175,50.145c0-0.479-0.388-0.865-0.866-0.865H1.962c-0.477,0-0.866,0.388-0.866,0.865v2.694
			c0,0.477,0.389,0.864,0.866,0.864h1.347c0.478,0,0.866-0.389,0.866-0.864V50.145z M3.598,52.84c0,0.158-0.13,0.288-0.289,0.288
			H1.962c-0.159,0-0.289-0.13-0.289-0.288v-2.694c0-0.158,0.13-0.288,0.289-0.288h1.347c0.159,0,0.289,0.13,0.289,0.288V52.84z"/>
		<path d="M11.823,49.279h-1.347c-0.478,0-0.865,0.388-0.865,0.865v2.694c0,0.477,0.388,0.864,0.865,0.864h1.347
			c0.478,0,0.866-0.389,0.866-0.864v-2.694C12.689,49.667,12.301,49.279,11.823,49.279z M12.112,52.84
			c0,0.158-0.129,0.288-0.289,0.288h-1.347c-0.159,0-0.288-0.13-0.288-0.288v-2.694c0-0.158,0.129-0.288,0.288-0.288h1.347
			c0.159,0,0.289,0.13,0.289,0.288V52.84z"/>
		<path d="M7.435,49.023c-0.096-0.051-0.211-0.043-0.298,0.019l-1.588,1.106c-0.131,0.091-0.163,0.271-0.071,0.401
			c0.091,0.131,0.271,0.163,0.401,0.071l1.134-0.79v3.584c0,0.159,0.13,0.288,0.289,0.288s0.289-0.129,0.289-0.288v-4.137
			C7.591,49.172,7.53,49.072,7.435,49.023z"/>
		<path d="M5.05,59.745h1.346c0.478,0,0.866-0.388,0.866-0.864v-2.693c0-0.479-0.388-0.866-0.866-0.866H5.049
			c-0.478,0-0.866,0.388-0.866,0.866v2.693C4.184,59.357,4.571,59.745,5.05,59.745z M4.761,56.187c0-0.159,0.129-0.289,0.289-0.289
			h1.346c0.159,0,0.289,0.13,0.289,0.289v2.693c0,0.158-0.129,0.287-0.289,0.287H5.049c-0.159,0-0.289-0.129-0.289-0.287
			L4.761,56.187L4.761,56.187z"/>
		<path d="M9.805,59.891h1.347c0.477,0,0.865-0.39,0.865-0.866v-2.693c0-0.478-0.388-0.865-0.865-0.865H9.805
			c-0.477,0-0.866,0.389-0.866,0.865v2.693C8.939,59.503,9.328,59.891,9.805,59.891z M9.516,56.331c0-0.158,0.13-0.288,0.289-0.288
			h1.347c0.159,0,0.288,0.13,0.288,0.288v2.693c0,0.159-0.129,0.289-0.288,0.289H9.805c-0.159,0-0.289-0.13-0.289-0.289V56.331z"/>
		<path d="M1.124,65.591h1.347c0.478,0,0.865-0.39,0.865-0.865v-2.694c0-0.478-0.388-0.866-0.865-0.866H1.124
			c-0.477,0-0.866,0.39-0.866,0.866v2.694C0.258,65.201,0.647,65.591,1.124,65.591z M0.835,62.03c0-0.159,0.13-0.288,0.289-0.288
			h1.347c0.159,0,0.288,0.129,0.288,0.288v2.694c0,0.159-0.129,0.288-0.288,0.288H1.124c-0.159,0-0.289-0.129-0.289-0.288V62.03z"/>
		<path d="M9.638,65.591h1.347c0.478,0,0.866-0.39,0.866-0.865v-2.694c0-0.478-0.388-0.866-0.866-0.866H9.638
			c-0.478,0-0.865,0.39-0.865,0.866v2.694C8.773,65.201,9.16,65.591,9.638,65.591z M9.35,62.03c0-0.159,0.129-0.288,0.288-0.288
			h1.347c0.159,0,0.289,0.129,0.289,0.288v2.694c0,0.159-0.13,0.288-0.289,0.288H9.638c-0.159,0-0.288-0.129-0.288-0.288V62.03z"/>
		<path d="M6.464,65.591c0.159,0,0.288-0.129,0.288-0.288v-4.139c0-0.106-0.06-0.206-0.155-0.256
			c-0.096-0.05-0.211-0.043-0.299,0.021l-1.587,1.104c-0.131,0.092-0.163,0.271-0.071,0.402c0.09,0.131,0.271,0.162,0.401,0.072
			l1.134-0.79v3.584C6.175,65.462,6.304,65.591,6.464,65.591z"/>
		<path d="M3.051,67.638H1.704c-0.477,0-0.866,0.388-0.866,0.865v2.693c0,0.478,0.389,0.865,0.866,0.865h1.347
			c0.478,0,0.866-0.389,0.866-0.865v-2.693C3.917,68.025,3.529,67.638,3.051,67.638z M3.34,71.197c0,0.159-0.13,0.288-0.289,0.288
			H1.704c-0.159,0-0.289-0.129-0.289-0.288v-2.693c0-0.158,0.13-0.288,0.289-0.288h1.347c0.159,0,0.289,0.13,0.289,0.288V71.197z"/>
		<path d="M11.565,67.638h-1.347c-0.478,0-0.865,0.388-0.865,0.865v2.693c0,0.478,0.388,0.865,0.865,0.865h1.347
			c0.478,0,0.866-0.389,0.866-0.865v-2.693C12.431,68.025,12.043,67.638,11.565,67.638z M11.854,71.197
			c0,0.159-0.129,0.288-0.289,0.288h-1.347c-0.159,0-0.288-0.129-0.288-0.288v-2.693c0-0.158,0.129-0.288,0.288-0.288h1.347
			c0.159,0,0.289,0.13,0.289,0.288V71.197z"/>
		<path d="M7.177,67.383c-0.096-0.052-0.211-0.043-0.298,0.019l-1.588,1.106c-0.131,0.091-0.163,0.271-0.071,0.4
			c0.091,0.131,0.271,0.163,0.401,0.072l1.134-0.79v3.584c0,0.159,0.13,0.288,0.289,0.288c0.159,0,0.289-0.129,0.289-0.288v-4.137
			C7.332,67.529,7.272,67.431,7.177,67.383z"/>
		<path d="M6.138,73.679H4.791c-0.478,0-0.866,0.388-0.866,0.866v2.692c0,0.479,0.388,0.865,0.866,0.865h1.347
			c0.478,0,0.866-0.388,0.866-0.865v-2.692C7.004,74.066,6.615,73.679,6.138,73.679z M6.426,77.238c0,0.159-0.129,0.288-0.289,0.288
			H4.79c-0.159,0-0.289-0.129-0.289-0.288v-2.692c0-0.159,0.129-0.289,0.289-0.289h1.347c0.159,0,0.289,0.13,0.289,0.289V77.238z"/>
		<path d="M10.894,73.823H9.547c-0.477,0-0.866,0.39-0.866,0.866v2.693c0,0.478,0.389,0.865,0.866,0.865h1.347
			c0.477,0,0.865-0.389,0.865-0.865v-2.693C11.759,74.213,11.371,73.823,10.894,73.823z M11.182,77.384
			c0,0.158-0.129,0.289-0.288,0.289H9.547c-0.159,0-0.289-0.131-0.289-0.289V74.69c0-0.159,0.13-0.288,0.289-0.288h1.347
			c0.159,0,0.288,0.129,0.288,0.288V77.384z"/>
		<path d="M14.598,74.376v3.585c0,0.159,0.129,0.288,0.289,0.288c0.159,0,0.288-0.129,0.288-0.288v-4.138
			c0-0.106-0.06-0.206-0.155-0.256c-0.096-0.051-0.211-0.043-0.299,0.02l-1.587,1.105c-0.131,0.091-0.163,0.271-0.071,0.402
			c0.09,0.131,0.271,0.162,0.401,0.07L14.598,74.376z"/>
		<path d="M2.213,79.522H0.866C0.389,79.522,0,79.911,0,80.389v2.693c0,0.478,0.389,0.865,0.866,0.865h1.347
			c0.478,0,0.865-0.389,0.865-0.865v-2.693C3.078,79.911,2.69,79.522,2.213,79.522z M2.501,83.083c0,0.159-0.129,0.288-0.288,0.288
			H0.866c-0.159,0-0.289-0.129-0.289-0.288v-2.694c0-0.159,0.13-0.288,0.289-0.288h1.347c0.159,0,0.288,0.129,0.288,0.288V83.083z"
			/>
		<path d="M10.726,79.522H9.379c-0.478,0-0.865,0.389-0.865,0.866v2.693c0,0.478,0.388,0.865,0.865,0.865h1.347
			c0.478,0,0.866-0.389,0.866-0.865v-2.693C11.592,79.911,11.204,79.522,10.726,79.522z M11.015,83.083
			c0,0.159-0.13,0.288-0.289,0.288H9.379c-0.159,0-0.288-0.129-0.288-0.288v-2.694c0-0.159,0.129-0.288,0.288-0.288h1.347
			c0.159,0,0.289,0.129,0.289,0.288V83.083z"/>
		<path d="M6.339,79.267c-0.096-0.05-0.211-0.043-0.299,0.02l-1.587,1.105c-0.131,0.092-0.163,0.271-0.071,0.401
			c0.09,0.132,0.271,0.162,0.401,0.072l1.134-0.79v3.584c0,0.159,0.129,0.288,0.289,0.288c0.159,0,0.288-0.129,0.288-0.288v-4.138
			C6.493,79.415,6.433,79.316,6.339,79.267z"/>
		<path d="M15.483,79.667h-1.347c-0.477,0-0.866,0.39-0.866,0.866v2.694c0,0.477,0.389,0.865,0.866,0.865h1.347
			c0.478,0,0.865-0.39,0.865-0.865v-2.694C16.348,80.056,15.96,79.667,15.483,79.667z M15.771,83.228
			c0,0.158-0.129,0.288-0.289,0.288h-1.347c-0.159,0-0.289-0.13-0.289-0.288v-2.694c0-0.159,0.13-0.288,0.289-0.288h1.347
			c0.159,0,0.289,0.129,0.289,0.288V83.228z"/>
	</g>
</g>
<g>
</g>
<g>
</g>
<g>
</g>
<g>
</g>
<g>
</g>
<g>
</g>
<g>
</g>
<g>
</g>
<g>
</g>
<g>
</g>
<g>
</g>
<g>
</g>
<g>
</g>
<g>
</g>
<g>
</g>
</svg>
